<?xml version="1.0" encoding="utf-8"?>
<!-- Generator: Adobe Illustrator 17.1.0, SVG Export Plug-In . SVG Version: 6.00 Build 0)  -->
<!DOCTYPE svg PUBLIC "-//W3C//DTD SVG 1.1//EN" "http://www.w3.org/Graphics/SVG/1.1/DTD/svg11.dtd">
<svg version="1.1" id="Layer_1" xmlns="http://www.w3.org/2000/svg" xmlns:xlink="http://www.w3.org/1999/xlink" x="0px" y="0px"
	 viewBox="0 0 372 196" enable-background="new 0 0 372 196" xml:space="preserve">
<path fill="#EAEAEA" d="M17.5,53.4c-2.4,2.4-0.4,4.8-3.6,8.4c-1.5,1.6,6,1.1,9.7-2.5c1.6-1.5,1.1-3.8-0.6-5.4C21.4,52.3,19.1,51.9,17.5,53.4z
	 M44.4,32.8c-1.2-1.2-15,9.8-19.1,13.8c-2,2-2.7,3.1-3.3,3.9c-0.3,0.3,0.1,0.5,0.2,0.5c0.8,0.4,1.4,0.8,2.1,1.5
	c0.7,0.7,1.1,1.3,1.5,2.1c0.1,0.2,0.2,0.5,0.5,0.2c0.8-0.6,1.9-1.3,3.9-3.3C34.4,47.5,45.6,34,44.4,32.8z"/>
<g>
	<path fill="#EAEAEA" d="M99.6,34.2c0,9.4,0,19,0,28.4c0,1.4-1,2.3-2.1,1.9c-0.8-0.2-1.3-0.8-1.3-1.9V51.4h-1.9V34.8c0-2.3,0.5-3,2.6-3.7h0.5
		c1.1,0.4,2,0.8,2.4,2C99.6,33.5,99.6,33.8,99.6,34.2z"/>
	<path fill="#EAEAEA" d="M90.2,31.1c0,0,0,7.6,0,11.6c-0.7,1.3-1,1.4-2.3,1.8v0.7c0,5.7,0,11.3,0,17.1c0,1.2-0.4,2.1-1.6,2.5H86
		c-1.2-0.4-1.6-1.2-1.6-2.5c0-5.7,0-11.3,0-17.1v-0.7c-1.4-0.4-1.7-0.5-2.3-1.8c0-3.8,0-11.6,0-11.6c0.2-0.8,0.8,0,0.8,0
		s0.4,0.8,0.5,1.2c0,1.9,0,3.8,0,5.7v1.3h0.8v-0.7c0-2.1,0-4.2,0-6.3c0-0.5,0.1-1,0.6-1.1H85c0.5,0.2,0.6,0.6,0.6,1.1
		c0,2.1,0,4.3,0,6.4v0.7h1.1v-0.8c0-2.1,0-4.3,0-6.4c0-0.5,0.1-0.8,0.6-1.1h0.1c0.4,0.2,0.5,0.6,0.5,1.1c0,2.1,0,4.3,0,6.3v0.7h1V38
		c0-1.9,0-3.8,0-5.7c0-0.4,0.5-1.2,0.5-1.2S90.1,30.2,90.2,31.1z"/>
</g>
<path fill="#EAEAEA" d="M164.6,34.7c0-0.2-0.1-0.3-0.3-0.3h-0.1h-7.2h-0.1c-0.2,0-0.3,0.1-0.3,0.3c0,0,0,0,0,0.1v1.3v0.2c0,0.2,0.1,0.3,0.3,0.3h0.1
	h0.5h0.6c0.7,0,1.1,0.3,1.1,1l0,9c0,0.2-0.1,0.3-0.2,0.3h-1.7c-0.3,0-0.5,0.1-0.5,0.3v1.5c0,0.2,0.2,0.3,0.5,0.3h1.7
	c0.1,0,0.2,0,0.2,0.1v9.8c0,0.2-0.1,0.3-0.3,0.3h-3.3c-0.2,0-0.3-0.1-0.3-0.3l0-24c0-0.2-0.2-0.3-0.5-0.3h-7.1c-1.4,0-2.1,0.7-2.1,2
	l0,21.6c0,0.6-0.4,1-1.1,1h-0.6h-0.5h-0.1c-0.2,0-0.3,0.1-0.3,0.3v0.2v1.3c0,0,0,0,0,0.1c0,0.2,0.1,0.3,0.3,0.3h0.1h7.2h0.1
	c0.2,0,0.3-0.1,0.3-0.3c0,0,0,0,0-0.1v-1.3v-0.2c0-0.2-0.1-0.3-0.3-0.3h-0.1h-0.5h-0.6c-0.7,0-1.1-0.3-1.1-1l0-9
	c0-0.2,0.1-0.3,0.2-0.3h1.7c0.3,0,0.5-0.1,0.5-0.3V47c0-0.2-0.2-0.3-0.5-0.3h-1.7c-0.1,0-0.2,0-0.2-0.1v-9.8c0-0.2,0.1-0.3,0.3-0.3
	h3.3c0.2,0,0.3,0.1,0.3,0.3l0,24c0,0.2,0.2,0.3,0.5,0.3h7.1c1.4,0,2.1-0.7,2.1-2l0-21.6c0-0.6,0.4-1,1.1-1h0.6h0.5h0.1
	c0.2,0,0.3-0.1,0.3-0.3v-0.2L164.6,34.7C164.6,34.7,164.6,34.7,164.6,34.7"/>
<g>
	<path fill="#EAEAEA" d="M218.5,37.4c-0.2-0.1-0.4-0.1-0.6-0.1l-7.5,0.6c-0.2,0-0.3,0.2-0.3,0.3l0.4,5.8c0,0.2,0.2,0.3,0.3,0.3l1.7-0.3
		c0.2,0,0.3-0.2,0.3-0.4l-0.3-3.3c0-0.2,0.1-0.3,0.3-0.3l2.3-0.1c0.2,0,0.2,0.1,0.2,0.3l-12.2,20.1c-0.1,0.2-0.1,0.4,0.1,0.5
		l2.4,1.9c0.1,0.1,0.3,0.1,0.4-0.1l6.8-10.9c0.1-0.1,0.3-0.3,0.5-0.3l2.7,0.1c0.2,0,0.2,0.1,0.1,0.3l-3.3,4.5
		c-0.1,0.1-0.1,0.4,0,0.5l2.2,1.9c0.1,0.1,0.3,0.1,0.4,0l6.5-8.3c0.2-0.3,0.1-0.6-0.1-0.8l-0.8-1.1c-0.2-0.3-0.6-0.3-0.8-0.3l-2-0.1
		c-0.2,0-0.2-0.1-0.2-0.3l2.3-4c0.1-0.2,0.2-0.1,0.3,0l1.3,2.8c0.1,0.2,0.3,0.2,0.4,0.1l5.7-3.4c0.2-0.1,0.2-0.3,0.1-0.4l-1.1-1.7
		c-0.1-0.1-0.3-0.2-0.4-0.1l-3.1,2c-0.1,0.1-0.3,0-0.4-0.1l-1.3-3.6c-0.1-0.2-0.2-0.4-0.4-0.5L218.5,37.4z"/>
	<path fill="#EAEAEA" d="M224.4,35.4c0,1.5-1.3,2.8-2.8,2.8c-1.5,0-2.8-1.3-2.8-2.8c0-1.5,1.3-2.8,2.8-2.8C223.1,32.6,224.4,33.9,224.4,35.4z"/>
</g>
<path fill="#EAEAEA" d="M269.8,62.8h3.2l7.2-12.8h8.3c0,0,4.8,0,4.8-2.2c0-2.2-4.8-2.2-4.8-2.2h-8.3L273,32.7h-3.2l4,12.8h-5.7l-3.6-3.2h-3.2
	l2.6,5.4l-2.6,5.4h3.2l3.6-3.2h5.7L269.8,62.8z"/>
<g>
	<path fill="#EAEAEA" d="M326,51l2.2,0.5l1.6-2.6l-3.1-0.8c-0.8-0.2-1.6,0.3-1.8,1.1C324.8,50,325.3,50.8,326,51L326,51z M354.5,51.4l-7.1,6.4
		l-8.4-6.5c-0.2-0.1-0.3-0.2-0.5-0.3l-1.1-0.3l-1.6,2.6l1.8,0.4l9.1,7.1c0.3,0.2,0.6,0.3,0.9,0.3c0.3,0,0.7-0.1,1-0.4l8-7.2
		c0.6-0.5,0.6-1.5,0.1-2C356,50.9,355.1,50.8,354.5,51.4L354.5,51.4z M338.8,44.3l7.8,5c0.7,0.4,1.5,0.2,2-0.4l8-11.6
		c0.5-0.7,0.3-1.6-0.4-2c-0.7-0.5-1.6-0.3-2,0.4L347,46.1l-7.9-5c-0.3-0.2-0.7-0.3-1.1-0.2c-0.4,0.1-0.7,0.3-0.9,0.6l-12,18.8
		c-0.4,0.7-0.2,1.6,0.4,2c0.2,0.2,0.5,0.2,0.8,0.2c0.5,0,1-0.2,1.2-0.7L338.8,44.3L338.8,44.3z"/>
</g>
<g>
	<path fill="#EAEAEA" d="M290.1,171.4h-1.6v24h1.6c1.8,0,3.2-1.4,3.2-3.2v-17.6C293.3,172.8,291.8,171.4,290.1,171.4z M261.3,174.6v17.6
		c0,1.8,1.4,3.2,3.2,3.2h1.6v-24h-1.6C262.7,171.4,261.3,172.8,261.3,174.6z M282.7,168c-1.1-0.5-2.8-1.5-5.4-1.5s-4.3,0.9-5.4,1.5
		v3.3h-3.5v24h17.9v-24h-3.5V168z M280.8,171.4h-7v-2.1c0.9-0.4,2.1-0.7,3.5-0.7c1.4,0,2.7,0.4,3.5,0.7V171.4z"/>
</g>
<g>
	<path fill="#EAEAEA" d="M39,109.1c-0.2,0-0.3,0-0.5,0c-0.5,0-0.9,0-1.4,0.1c-0.4-4.2-3.3-7.6-7.1-8.9c-0.3,0.3-0.4,0.6-0.4,0.8
		c0.3,2.8,2.2,0.7,2.6,1.1c1.3,1.5-2.5,2-1.2,4.7c0.6,1.3,1.4,1.6,2.5,1.6c0.7,0,1.2,0.9,1.4,1.6c-0.3,0.2-0.5,0.4-0.8,0.6l-1.2,1.1
		l-1.2-1c-1.2-1.1-2.8-1.7-4.4-1.7c0.3-2.7-3.3-2.9-3.9-3.1c-0.6-0.2-1.7-0.3-2-0.1c-0.4,0.1-1.2-0.6-1.2-1.1s1.5-1.6,2-2.4
		c0.5-0.8,0.8-0.7,1.7-1.5c0.4-0.4,1.1-0.6,1.3-1.1c-3.8,0.5-7,3.1-8.4,6.7c0.8,0.1,2.7,0.1,2.9,0.8c0.2,0.7-0.8,1.3-0.8,2.7
		c0,1.5,2,1.5,2,2.7c0,0.3,0,0.7,0.1,1c-0.2,0.6-0.3,1.1-0.3,1.7c0,1.7,0.7,3.4,2.1,4.6l2.9,2.6c-6.4-0.5-11.4-5.8-11.4-12.3
		c0-6.8,5.6-12.4,12.4-12.4C33.1,97.9,38.4,102.8,39,109.1z"/>
	<path fill="#EAEAEA" d="M44,115.4c0,1.5-0.6,2.8-1.8,3.9l-9.4,8.6l-5.7-5.2l-2.1-1.9l-1-0.9l-0.5-0.6c-0.8-0.8-1.4-1.7-1.6-2.8l0,0
		c-0.1-0.4-0.2-0.7-0.2-1.1c0-1.5,0.6-2.8,1.8-3.9c0.9-0.9,2.2-1.4,3.5-1.4c0.1,0,0.2,0,0.2,0c1.4,0,2.8,0.5,3.8,1.4l1.9,1.7
		l1.9-1.7c0.1-0.1,0.2-0.2,0.3-0.3c0.6-0.5,1.4-0.9,2.2-1c0.4-0.1,0.8-0.1,1.3-0.1c0.2,0,0.3,0,0.5,0c1.2,0.1,2.4,0.6,3.2,1.4
		C43.4,112.6,44,113.9,44,115.4z"/>
</g>
<g>
	<path fill="#EAEAEA" d="M351.8,177.2c-0.2,0-0.3,0-0.5,0c-0.5,0-0.9,0-1.4,0.1c-0.4-4.2-3.3-7.6-7.1-8.9c-0.3,0.3-0.4,0.6-0.4,0.8
		c0.3,2.8,2.2,0.7,2.6,1.1c1.3,1.5-2.5,2-1.2,4.7c0.6,1.3,1.4,1.6,2.5,1.6c0.7,0,1.2,0.9,1.4,1.6c-0.3,0.2-0.5,0.4-0.8,0.6l-1.2,1.1
		l-1.2-1c-1.2-1.1-2.8-1.7-4.4-1.7c0.3-2.7-3.3-2.9-3.9-3.1c-0.6-0.2-1.7-0.3-2-0.1c-0.4,0.1-1.2-0.6-1.2-1.1s1.5-1.6,2-2.4
		c0.5-0.8,0.8-0.7,1.7-1.5c0.4-0.4,1.1-0.6,1.3-1.1c-3.8,0.5-7,3.1-8.4,6.7c0.8,0.1,2.7,0.1,2.9,0.8c0.2,0.7-0.8,1.3-0.8,2.7
		c0,1.5,2,1.5,2,2.7c0,0.3,0,0.7,0.1,1c-0.2,0.6-0.3,1.1-0.3,1.7c0,1.7,0.7,3.4,2.1,4.6l2.9,2.6c-6.4-0.5-11.4-5.8-11.4-12.3
		c0-6.8,5.6-12.4,12.4-12.4C345.9,166,351.2,170.9,351.8,177.2z"/>
	<path fill="#EAEAEA" d="M356.8,183.5c0,1.5-0.6,2.8-1.8,3.9l-9.4,8.6l-5.7-5.2l-2.1-1.9l-1-0.9l-0.5-0.6c-0.8-0.8-1.4-1.7-1.6-2.8l0,0
		c-0.1-0.4-0.2-0.7-0.2-1.1c0-1.5,0.6-2.8,1.8-3.9c0.9-0.9,2.2-1.4,3.5-1.4c0.1,0,0.2,0,0.2,0c1.4,0,2.8,0.5,3.8,1.4l1.9,1.7
		l1.9-1.7c0.1-0.1,0.2-0.2,0.3-0.3c0.6-0.5,1.4-0.9,2.2-1c0.4-0.1,0.8-0.1,1.3-0.1c0.2,0,0.3,0,0.5,0c1.2,0.1,2.4,0.6,3.2,1.4
		C356.2,180.7,356.8,182,356.8,183.5z"/>
</g>
<g>
	<path fill="#EAEAEA" d="M80.2,113.2c0.7,3,1.7,4.3,4.8,5.7c3.1,1.4,4.6,2.9,5.9,2.9s2.6-1.3,5.8-2.7c3.1-1.4,2.3-1.8,3.1-4.8l-8.8,4.3L80.2,113.2
		L80.2,113.2z M106.2,105.4l-13.3-7.5c-1-0.6-2.8-0.6-3.8,0l-13.3,7.5c-1,0.6-1,1.5,0,2.1l13.3,7.5c1,0.6,2.8,0.6,3.8,0l8.6-4.8
		l-9.3-2.2c-0.4,0.1-0.8,0.1-1.2,0.1c-1.7,0-3-0.8-3-1.8s1.4-1.8,3-1.8c1.3,0,2.4,0.5,2.8,1.2l9.9,3.2l2.5-1.4
		C107.2,106.9,107.2,106,106.2,105.4L106.2,105.4z M102.1,119.5c-0.1,0.6,2.1,1.6,2.3-0.2c0.9-8.1-0.7-10.5-0.7-10.5l-2.2,1.2
		C101.5,110.1,103.4,111.9,102.1,119.5z"/>
</g>
<g>
	<path fill="#EAEAEA" d="M149.3,118.3h5.2l-0.5-8.6c0,0-0.9-1.2-3.8-3.5c-2.8-2.4-4.3-4.8-5.4-3.7c-1.1,1.1,2.1,3.6,2.8,4.3c0.7,0.7,0,1-0.3,0.7
		c-0.4-0.3-3.3-2.8-3.5-4.3c-0.1-1.5-0.9-4.4-2.3-5.6c-1.3-1.1-1.8-0.1-1.5,1.1c0.4,1.2,1.5,4.8,1.5,4.8s0.4,1.6,2.3,3.5
		c1.9,1.9,5.8,5,5.8,5S149.7,113.5,149.3,118.3z"/>
	<path fill="#EAEAEA" d="M160.1,118.3h-5.2l0.5-8.6c0,0,0.9-1.2,3.8-3.5c2.8-2.4,4.3-4.8,5.4-3.7c1.1,1.1-2.1,3.6-2.8,4.3c-0.7,0.7,0,1,0.3,0.7
		c0.4-0.3,3.3-2.8,3.5-4.3c0.2-1.5,0.9-4.3,2.3-5.5c1.4-1.2,1.9-0.1,1.5,1.1c-0.4,1.2-1.5,4.8-1.5,4.8s-0.4,1.6-2.3,3.5
		c-1.9,1.9-5.8,5-5.8,5S159.7,113.5,160.1,118.3z"/>
</g>
<g>
	<path fill="#EAEAEA" d="M228.3,117.8v-3.7c0-2.2-1.5-5.5-5.5-5.5h-3.2c-2.3,0-2.5-1.1-2.5-1.7v-4.5c1.4-0.6,2.3-1.9,2.3-3.5c0-2.1-1.7-3.8-3.8-3.8
		c-2.1,0-3.8,1.7-3.8,3.8c0,1.6,1,2.9,2.3,3.5v4.5c0,0.4-0.1,1.7-2.5,1.7h-3.2c-4.1,0-5.5,3.3-5.5,5.5v3.7c-1.4,0.6-2.3,1.9-2.3,3.5
		c0,2.1,1.7,3.8,3.8,3.8c2.1,0,3.8-1.7,3.8-3.8c0-1.6-1-2.9-2.3-3.5v-3.7c0-0.4,0.1-2.5,2.5-2.5h3.2c1,0,1.8-0.1,2.5-0.4v6.5
		c-1.4,0.6-2.3,1.9-2.3,3.5c0,2.1,1.7,3.8,3.8,3.8c2.1,0,3.8-1.7,3.8-3.8c0-1.6-1-2.9-2.3-3.5v-6.5c0.7,0.2,1.5,0.4,2.5,0.4h3.2
		c2.3,0,2.5,1.9,2.5,2.5v3.7c-1.4,0.6-2.3,1.9-2.3,3.5c0,2.1,1.7,3.8,3.8,3.8c2.1,0,3.8-1.7,3.8-3.8
		C230.6,119.7,229.7,118.4,228.3,117.8z M206.6,121.3c0,1.2-1,2.2-2.2,2.2c-1.2,0-2.2-1-2.2-2.2c0-1.2,1-2.2,2.2-2.2
		C205.6,119.1,206.6,120.1,206.6,121.3z M213.4,98.9c0-1.2,1-2.2,2.2-2.2s2.2,1,2.2,2.2c0,1.2-1,2.2-2.2,2.2S213.4,100.1,213.4,98.9
		z M217.8,121.3c0,1.2-1,2.2-2.2,2.2c-1.2,0-2.2-1-2.2-2.2c0-1.2,1-2.2,2.2-2.2S217.8,120.1,217.8,121.3z M226.8,123.5
		c-1.2,0-2.2-1-2.2-2.2c0-1.2,1-2.2,2.2-2.2c1.2,0,2.2,1,2.2,2.2C229,122.5,228,123.5,226.8,123.5z"/>
</g>
<path fill="#EAEAEA" d="M284.9,115c0,3.5-2.3,6.1-5.7,6.9v3.9h-3.8v-3.6c-1.9-0.2-3.9-0.8-5.2-1.7l-0.6-0.3l1.4-4l0.8,0.5c1.4,0.9,3.2,1.5,4.8,1.5
	c2.2,0,3.6-1.2,3.6-2.8c0-1.5-1.1-2.5-3.6-3.6c-3.2-1.2-6.5-3.1-6.5-7.1c0-3.2,2.2-5.7,5.5-6.5v-3.7h3.8V98c1.6,0.2,3,0.6,4.3,1.3
	l0.5,0.3l-1.5,3.8l-0.8-0.5c-0.7-0.4-2.1-1.2-4.2-1.2c-2.3,0-3.1,1.2-3.1,2.4c0,1.3,0.9,2.1,4.1,3.5
	C283.1,109.4,284.9,111.6,284.9,115z"/>
<g>
	<path fill="#EAEAEA" d="M347.6,110.9v3.7c-0.1,0-13.3,0-13.3,0v-3.7C334.3,110.9,347.5,110.9,347.6,110.9z"/>
	<path fill="#EAEAEA" d="M352.2,102.8c0,0.1,0,19.7,0,19.8h-4c0-0.1,0-19.7,0-19.8C348.3,102.8,352.2,102.8,352.2,102.8z"/>
	<path fill="#EAEAEA" d="M356.1,105.9c0,0.1,0,13.6,0,13.7h-3.2c0-0.1,0-13.6,0-13.7H356.1z"/>
	<path fill="#EAEAEA" d="M333.6,102.8c0,0.1,0,19.7,0,19.8h-4c0-0.1,0-19.7,0-19.8H333.6z"/>
	<path fill="#EAEAEA" d="M329,105.8c0,0.1,0,13.6,0,13.7h-3.3c0-0.1,0-13.6,0-13.7H329z"/>
</g>
<path fill="#EAEAEA" d="M210.3,168.5v19c-1-0.2-2.2-0.1-3.4,0.3c-2.7,1-3.6,3.4-2.9,5.4c0.7,2,2.8,2.8,5.5,1.8c2.3-0.8,3.8-2.7,3.7-4.5
	c0,0,0-10.1,0-15.7l11.4-2.6v12c-1-0.2-2.2-0.1-3.4,0.3c-2.7,1-3.6,3.4-2.9,5.4c0.7,2,2.8,2.8,5.5,1.8c2.3-0.8,3.8-2.7,3.7-4.5
	v-22.5L210.3,168.5L210.3,168.5z"/>
<g>
	<path fill="#EAEAEA" d="M42.4,190.9c-1.5,2-5.4,3.9-10.2,4c-4.9-0.1-4.9-0.1-5.3-0.1c-5.2,0-9.8-2.1-11-4.4c0.8,0.1,1.7,0.2,2.5,0.3
		c1.1,0.1,2.4,0.2,3.6,0.3c3.3,0.2,6.3,0.3,10,0.3c1.6,0,3.2,0,4.7-0.1c1.3,0,2.7-0.1,4-0.2C41.1,191,41.8,190.9,42.4,190.9z"/>
	<path fill="#EAEAEA" d="M38.6,189.3H20.5c7.9-7.9,11.3-21.4,11.3-21.4L38.6,189.3z"/>
</g>
<path fill="#EAEAEA" d="M102.5,170.8c-2.7-2.5-7-2.5-9.7,0l-1.8,1.7l-1.8-1.7c-2.7-2.5-7-2.5-9.7,0c-3,2.8-3,7.2,0,10L91,191.4l11.5-10.6
	C105.5,178,105.5,173.6,102.5,170.8z"/>
<path fill="#EAEAEA" d="M156.7,187.1c0-2.3,1.8-3.6,4.6-5.5c3.5-2.3,7.9-5.2,7.9-12.1c0-0.6-0.5-1.1-1.1-1.1h-5.5c-0.8-1.4-3.1-3-7.8-3
	c-4.7,0-7,1.5-7.8,3h-5.5c-0.6,0-1.1,0.5-1.1,1.1c0,6.9,4.4,9.8,7.9,12.1c2.9,1.9,4.6,3.2,4.6,5.5v2.1c-3,0.3-5.2,1.5-5.2,2.8
	c0,1.6,3.2,2.9,7.1,2.9c3.9,0,7.1-1.3,7.1-2.9c0-1.3-2.2-2.4-5.2-2.8L156.7,187.1L156.7,187.1z M161.1,179c0.9-1.9,1.6-4.5,1.7-8.4
	h4C166.5,175,163.9,177.1,161.1,179L161.1,179z M154.8,167.4c4.4,0,6.1,1.8,6.1,2.4c0,0.7-1.7,2.5-6.1,2.5c-4.4,0-6.1-1.8-6.1-2.5
	C148.7,169.2,150.4,167.4,154.8,167.4z M142.7,170.6h4c0.1,3.9,0.8,6.5,1.7,8.4C145.7,177.1,143.1,175,142.7,170.6z"/>
</svg>
