<?xml version="1.0" encoding="utf-8"?>
<!-- Generator: Adobe Illustrator 17.1.0, SVG Export Plug-In . SVG Version: 6.00 Build 0)  -->
<!DOCTYPE svg PUBLIC "-//W3C//DTD SVG 1.1//EN" "http://www.w3.org/Graphics/SVG/1.1/DTD/svg11.dtd">
<svg version="1.1" id="Layer_1" xmlns="http://www.w3.org/2000/svg" xmlns:xlink="http://www.w3.org/1999/xlink" x="0px" y="0px"
	 viewBox="0 0 470.1 109.8" enable-background="new 0 0 470.1 109.8" xml:space="preserve">
<path d="M467.4,8c0,3-2.5,5.5-5.5,5.4c-3,0-5.5-2.5-5.5-5.5c0-3.1,2.6-5.5,5.5-5.4C464.9,2.5,467.4,4.9,467.4,8 M457.3,7.9
	c0,2.6,2,4.6,4.6,4.6c2.5,0,4.6-2.1,4.6-4.6c0-2.5-2.1-4.6-4.6-4.6C459.4,3.4,457.3,5.3,457.3,7.9 M459.5,4.5l2.3,0
	c0.8,0,2.4,0,2.4,1.8c0,1.3-0.8,1.5-1.3,1.7c0.9,0.1,1,0.7,1.1,1.5c0.1,0.5,0.2,1.5,0.3,1.8h-1.4c0-0.3-0.2-2.1-0.2-2.2
	c-0.1-0.4-0.2-0.6-0.7-0.6l-1.2,0l0,2.7l-1.3,0L459.5,4.5z M460.7,7.5h1.1c0.9,0,1-0.6,1-1c0-0.9-0.6-0.9-1-0.9h-1.1L460.7,7.5
	L460.7,7.5z"/>
<path fill="#FD6D20" d="M85.3,6.3c-0.1-0.7-0.5-1-1.2-1h-0.3H56.2h-0.3c-0.8,0-1.2,0.3-1.2,1c0,0.1,0,0.1,0,0.2v5.1v0.6
	c0,0.7,0.4,1,1.2,1h0.3H58h2.3c2.8,0,4.2,1.2,4.2,3.6l0,34.5c0,0.7-0.3,1-0.8,1h-6.6c-1.2,0-1.8,0.3-1.8,1v5.7c0,0.6,0.6,1,1.8,1
	h6.6c0.5,0,0.8,0.2,0.8,0.6v37.4c0,0.9-0.4,1.3-1.1,1.3H50.7c-0.8,0-1.2-0.4-1.2-1.1l0-91.6c0-0.7-0.6-1.1-1.8-1.1h-27
	c-5.4,0-8,2.6-8,7.8l0,82.3c0,2.4-1.4,3.6-4.2,3.6H6.3H4.4H4.1c-0.8,0-1.3,0.3-1.3,1v0.6v5.1c0,0.1,0,0.1,0,0.2c0.1,0.6,0.5,1,1.2,1
	h0.3H32h0.3c0.7,0,1.2-0.3,1.2-1c0-0.1,0-0.1,0-0.2v-5.1V100c0-0.7-0.4-1-1.2-1H32h-1.8h-2.3c-2.8,0-4.2-1.2-4.2-3.6l0-34.5
	c0-0.7,0.3-1,0.8-1H31c1.2,0,1.8-0.3,1.8-1v-5.6c0-0.7-0.6-1-1.8-1h-6.6c-0.5,0-0.8-0.2-0.8-0.6V14.2c0-0.8,0.4-1.3,1.1-1.3h12.7
	c0.8,0,1.2,0.4,1.2,1.2l-0.1,91.6c0,0.8,0.6,1.1,1.8,1.1h27c5.3,0,8-2.6,8-7.8l0-82.3c0-2.4,1.4-3.6,4.2-3.6h2.2h1.9H84
	c0.8,0,1.3-0.3,1.2-1v-0.6l0-5.1C85.3,6.4,85.3,6.3,85.3,6.3"/>
<path d="M161.8,5.2c1.1,0,1.7,0.4,1.7,1.2V21c0,1.1-0.4,1.7-1.2,1.7H153c-0.8,0-1.3-0.5-1.3-1.5v-5.4c0-0.9-0.4-1.4-1.2-1.4h-23.6
	c-0.7,0-1.1,0.5-1.1,1.6v31.2c0,0.5,0.2,0.8,0.6,0.8h32.1c1.3,0,2,0.6,2,1.7v6.1c0,0.8-0.7,1.2-2,1.2h-32.1c-0.4,0-0.6,0.3-0.6,0.8
	v39.7c0,0.4,0.2,0.6,0.6,0.6h11.5c0.9,0,1.4,0.4,1.4,1.3v6.7c0,0.7-0.5,1.1-1.4,1.1h-32.3c-0.8,0-1.2-0.4-1.2-1.1v-7.1
	c0-0.5,0.4-0.8,1.2-0.8h4.8c2.4,0,3.6-1.3,3.6-4V59.8V18.4c0-2.7-1.5-4-4.5-4h-6.1c-1,0-1.6-0.4-1.6-1.2V6.4c0-0.8,0.5-1.2,1.6-1.2
	C103.5,5.2,161.8,5.2,161.8,5.2z"/>
<path d="M178.3,18.2c0-2.7-1.4-4-4.3-4h-4.8c-1,0-1.5-0.4-1.5-1.2V6.4c0-0.8,0.5-1.2,1.5-1.2h32.1c1,0,1.6,0.4,1.6,1.1v6.7
	c0,0.8-0.5,1.2-1.6,1.2h-10.1c-0.5,0-0.8,0.2-0.8,0.6v82.5c-0.1,0.4,0.1,0.6,0.6,0.6h9.8c1.1,0,1.7,0.4,1.7,1.3v6.5
	c0,0.8-0.6,1.3-1.9,1.3h-31.8c-1,0-1.5-0.4-1.5-1.3v-6.5c0-0.8,0.5-1.3,1.5-1.3h5.8c2.6,0,3.9-1.5,3.9-4.6L178.3,18.2z"/>
<path d="M274.5,106.9c-0.4,0-0.8,0-1-0.1c-0.3-0.1-0.6-0.4-0.9-1c-0.1-0.1-0.7-1.3-1.8-3.5c-1.1-2.3-37.2-70.5-37.3-70.7
	c-0.2-0.3-0.5-0.4-0.9-0.4c-0.4,0-0.6,0.5-0.6,1.3v64.1c0,0.2,0,0.5,0.1,0.8c0.1,0.3,0.4,0.5,0.9,0.5h13.3c0.6,0,1,0.1,1.2,0.1
	c0.2,0.1,0.3,0.5,0.3,1.1v6.8c0,0.7-0.2,1.1-0.5,1.1h-1.1h-37.2c-0.8,0-1.3-0.2-1.4-0.5c-0.1-0.3-0.1-0.7-0.1-1.1V99
	c0-0.8,0.4-1.2,1.5-1.2h8.4c2.3,0,3.6-0.5,3.9-1.5c0.4-1,0.6-2.2,0.6-3.7V14.8c0-0.4-0.2-0.6-0.6-0.6h-12.9c-0.6,0-0.9-0.4-0.9-1.2
	V6.3c0-0.9,0.2-1.1,1.4-1.1h20.2c1.1,0,2.1,0.1,3,0.2c0.8,0.1,1.6,0.6,2.3,1.3c0.2,0.2,0.9,1.5,2.2,3.8c1.3,2.3,40,75.8,40.6,77
	c0.2,0.4,0.6,0.6,1.2,0.6c0.6,0,0.9-0.4,1-1.2V15.3c0-0.4-0.1-0.7-0.2-0.8c-0.1-0.2-0.5-0.2-1.2-0.2h-12.9c-0.8,0-1.3-0.1-1.4-0.3
	c-0.1-0.2-0.2-0.5-0.2-0.9V6.3c0-0.3,0.1-0.6,0.2-0.8c0.2-0.2,0.6-0.3,1.3-0.3h37.7c0.6,0,0.9,0.4,0.9,1.1v6.7c0,0.5-0.1,0.8-0.2,1
	c-0.2,0.2-0.6,0.2-1.3,0.2h-10.2c-1.2,0-2,0.3-2.2,0.9c-0.2,0.6-0.3,1.6-0.3,3c-0.1,17.2-0.2,28-0.2,41.4v46.4
	c0,0.3-0.1,0.6-0.1,0.8c-0.1,0.2-0.5,0.3-1.2,0.3L274.5,106.9L274.5,106.9z"/>
<path d="M376.2,97.8c1,0,1.5,0.3,1.5,0.9v7c0,0.9-0.5,1.3-1.5,1.3h-30.6c-1.1,0-1.7-0.4-1.7-1.3V99c0-1,0.6-1.4,1.7-1.2h10.1
	c0.4,0,0.6-0.2,0.6-0.6l-4.7-21.4c-0.1-1-0.8-1.5-2.2-1.5h-29.8c-1.3,0-2.2,0.5-2.5,1.5l-5,21.4c0,0.4,0.2,0.6,0.6,0.6h12.3
	c1.3,0,1.9,0.4,1.9,1.2v6.7c0,0.9-0.6,1.3-1.9,1.3h-30.8c-1,0-1.6-0.4-1.6-1.3V99c0-0.8,0.5-1.2,1.6-1.2h4c2.3,0,3.8-0.7,4.5-2.2
	L328.2,8c0.4-1.8,1.3-2.7,2.5-2.8h12.9c1.2,0,2.1,0.9,2.6,2.8L367,91.7c1.1,4,3,6,5.7,6L376.2,97.8L376.2,97.8z M347.2,64.9
	c0.4,0,0.8-0.2,1-0.5c0.3-0.4,0.3-0.8,0.2-1.5c-0.2-0.6-3.6-11.9-10.5-42.9c-0.4-1.1-1.2-1.7-2.3-1.6c-1.1,0.1-1.9,0.6-2.3,1.6
	l-11.9,42c-0.4,1.2-0.5,2.1-0.2,2.4c0.3,0.4,0.7,0.5,1.5,0.5H347.2z"/>
<path d="M455.6,91.9c0,9.7-5.3,14.7-15.8,15h-45.4c-10.1,0-15.2-5-15.2-15V50.2V20.2c0-10,5.1-15,15.2-15h45.4
	c10.5,0,15.8,5,15.8,15L455.6,91.9L455.6,91.9z M443.5,20.2c-0.1-4-2.8-6-8.1-6h-36.9c-4.8,0-7.1,2.1-7.1,6.2v71.7c0,4,2.4,6,7.1,6
	h36.9c5.4,0,8.1-2,8.1-6L443.5,20.2L443.5,20.2z"/>
</svg>
