<?xml version="1.0" encoding="utf-8"?>
<!-- Generator: Adobe Illustrator 17.1.0, SVG Export Plug-In . SVG Version: 6.00 Build 0)  -->
<!DOCTYPE svg PUBLIC "-//W3C//DTD SVG 1.1//EN" "http://www.w3.org/Graphics/SVG/1.1/DTD/svg11.dtd">
<svg version="1.1" id="Layer_1" xmlns="http://www.w3.org/2000/svg" xmlns:xlink="http://www.w3.org/1999/xlink" x="0px" y="0px"
	 viewBox="18.7 165.8 464.5 174.3" enable-background="new 18.7 165.8 464.5 174.3" xml:space="preserve">
<g>
	<g opacity="0.22">
		<path d="M101.9,200.4H25.6c-3.3,0-5.9,2.7-5.9,5.9v93.4c0,3.3,2.7,5.9,5.9,5.9h76.3c3.3,0,5.9-2.7,5.9-5.9v-93.4
			C107.8,203,105.1,200.4,101.9,200.4z M98.5,215.9c0,0.6-0.4,0.9-1.1,0.9h-3.7c-2.4,0-3.6,1.1-3.6,3.1v69.4c0,4.3-2.3,6.5-6.8,6.5
			H60.6c-1,0-1.5-0.4-1.5-1v-77.2c0-0.7-0.3-1-1-1H47.4c-0.6,0-0.9,0.4-0.9,1.1v31.6c0,0.3,0.2,0.5,0.6,0.5h5.6c1,0,1.5,0.2,1.5,0.8
			v4.8c0,0.5-0.5,0.8-1.5,0.8h-5.6c-0.4,0-0.6,0.2-0.6,0.8v29.1c0,2.1,1.2,3.1,3.6,3.1h3.5c0.6,0,1,0.3,1,0.9v4.8c0,0.1,0,0.1,0,0.2
			c0,0.5-0.4,0.8-1,0.8H29.8c-0.6,0-1-0.3-1-0.8c0-0.1,0-0.1,0-0.2v-4.8c0-0.6,0.4-0.9,1.1-0.9h3.8c2.4,0,3.6-1.1,3.6-3.1v-69.4
			c0-4.3,2.3-6.5,6.8-6.5h22.8c1,0,1.5,0.4,1.5,1v77.2c0,0.7,0.3,1,1,1h10.7c0.6,0,0.9-0.4,0.9-1.1v-31.5c0-0.3-0.2-0.5-0.6-0.5
			h-5.6c-1,0-1.5-0.2-1.5-0.8v-4.8c0-0.5,0.5-0.8,1.5-0.8h5.6c0.4,0,0.6-0.2,0.6-0.8V220c0-2.1-1.2-3.1-3.6-3.1h-3.6
			c-0.7,0-1.1-0.3-1.1-0.9v-4.8c0-0.1,0-0.1,0-0.2c0-0.5,0.4-0.8,1-0.8h23.8c0.6,0,0.9,0.3,1,0.8V215.9z"/>
	</g>
	<path fill="#FD6D20" d="M100.9,197.4H24.6c-3.3,0-5.9,2.7-5.9,5.9v93.4c0,3.3,2.7,5.9,5.9,5.9h76.3c3.3,0,5.9-2.7,5.9-5.9v-93.4
		C106.8,200,104.1,197.4,100.9,197.4z M97.5,212.9c0,0.6-0.4,0.9-1.1,0.9h-3.7c-2.4,0-3.6,1.1-3.6,3.1v69.4c0,4.3-2.3,6.5-6.8,6.5
		H59.6c-1,0-1.5-0.4-1.5-1v-77.2c0-0.7-0.3-1-1-1H46.4c-0.6,0-0.9,0.4-0.9,1.1v31.6c0,0.3,0.2,0.5,0.6,0.5h5.6c1,0,1.5,0.2,1.5,0.8
		v4.8c0,0.5-0.5,0.8-1.5,0.8h-5.6c-0.4,0-0.6,0.2-0.6,0.8v29.1c0,2.1,1.2,3.1,3.6,3.1h3.5c0.6,0,1,0.3,1,0.9v4.8c0,0.1,0,0.1,0,0.2
		c0,0.5-0.4,0.8-1,0.8H28.8c-0.6,0-1-0.3-1-0.8c0-0.1,0-0.1,0-0.2v-4.8c0-0.6,0.4-0.9,1.1-0.9h3.8c2.4,0,3.6-1.1,3.6-3.1v-69.4
		c0-4.3,2.3-6.5,6.8-6.5h22.8c1,0,1.5,0.4,1.5,1v77.2c0,0.7,0.3,1,1,1h10.7c0.6,0,0.9-0.4,0.9-1.1v-31.5c0-0.3-0.2-0.5-0.6-0.5h-5.6
		c-1,0-1.5-0.2-1.5-0.8v-4.8c0-0.5,0.5-0.8,1.5-0.8h5.6c0.4,0,0.6-0.2,0.6-0.8V217c0-2.1-1.2-3.1-3.6-3.1h-3.6
		c-0.7,0-1.1-0.3-1.1-0.9v-4.8c0-0.1,0-0.1,0-0.2c0-0.5,0.4-0.8,1-0.8h23.8c0.6,0,0.9,0.3,1,0.8V212.9z"/>
</g>
<g>
	<path opacity="0.22" d="M181.8,205.7c1.1,0,1.7,0.4,1.7,1.2v14.4c0,1.1-0.4,1.7-1.2,1.7h-9.2c-0.8,0-1.2-0.5-1.2-1.5v-5.4
		c0-0.9-0.4-1.4-1.2-1.4h-23.3c-0.7,0-1.1,0.5-1.1,1.5V247c0,0.5,0.2,0.8,0.6,0.8h31.7c1.3,0,2,0.6,2,1.7v6c0,0.8-0.7,1.2-2,1.2
		h-31.7c-0.4,0-0.6,0.3-0.6,0.8v39.2c0,0.4,0.2,0.6,0.6,0.6h11.3c0.9,0,1.4,0.4,1.4,1.2v6.6c0,0.7-0.5,1.1-1.4,1.1h-31.9
		c-0.8,0-1.2-0.4-1.2-1.1v-7c0-0.5,0.4-0.8,1.2-0.8h4.7c2.4,0,3.5-1.3,3.5-4v-33.6v-40.9c0-2.6-1.5-4-4.5-4h-6c-1,0-1.5-0.4-1.5-1.2
		V207c0-0.8,0.5-1.2,1.5-1.2L181.8,205.7L181.8,205.7z"/>
	<path fill="#FFFFFF" d="M180.8,201.7c1.1,0,1.7,0.4,1.7,1.2v14.4c0,1.1-0.4,1.7-1.2,1.7h-9.2c-0.8,0-1.2-0.5-1.2-1.5v-5.4
		c0-0.9-0.4-1.4-1.2-1.4h-23.3c-0.7,0-1.1,0.5-1.1,1.5V243c0,0.5,0.2,0.8,0.6,0.8h31.7c1.3,0,2,0.6,2,1.7v6c0,0.8-0.7,1.2-2,1.2
		h-31.7c-0.4,0-0.6,0.3-0.6,0.8v39.2c0,0.4,0.2,0.6,0.6,0.6h11.3c0.9,0,1.4,0.4,1.4,1.2v6.6c0,0.7-0.5,1.1-1.4,1.1h-31.9
		c-0.8,0-1.2-0.4-1.2-1.1v-7c0-0.5,0.4-0.8,1.2-0.8h4.7c2.4,0,3.5-1.3,3.5-4v-33.6v-40.9c0-2.6-1.5-4-4.5-4h-6c-1,0-1.5-0.4-1.5-1.2
		V203c0-0.8,0.5-1.2,1.5-1.2L180.8,201.7L180.8,201.7z"/>
</g>
<g>
	<path opacity="0.22" d="M198.1,218.6c0-2.7-1.4-4-4.3-4H189c-1,0-1.5-0.4-1.5-1.2V207c0-0.8,0.5-1.2,1.5-1.2h31.7
		c1,0,1.5,0.4,1.5,1.1v6.6c0,0.8-0.5,1.2-1.5,1.2h-10c-0.5,0-0.8,0.2-0.8,0.6v81.5c-0.1,0.4,0.1,0.6,0.6,0.6h9.6
		c1.1,0,1.7,0.4,1.7,1.2v6.4c0,0.8-0.6,1.2-1.8,1.2h-31.4c-1,0-1.5-0.4-1.5-1.2v-6.4c0-0.8,0.5-1.2,1.5-1.2h5.7
		c2.5,0,3.8-1.5,3.8-4.6V218.6z"/>
	<path fill="#FFFFFF" d="M197.1,214.6c0-2.7-1.4-4-4.3-4H188c-1,0-1.5-0.4-1.5-1.2V203c0-0.8,0.5-1.2,1.5-1.2h31.7
		c1,0,1.5,0.4,1.5,1.1v6.6c0,0.8-0.5,1.2-1.5,1.2h-10c-0.5,0-0.8,0.2-0.8,0.6v81.5c-0.1,0.4,0.1,0.6,0.6,0.6h9.6
		c1.1,0,1.7,0.4,1.7,1.2v6.4c0,0.8-0.6,1.2-1.8,1.2h-31.4c-1,0-1.5-0.4-1.5-1.2v-6.4c0-0.8,0.5-1.2,1.5-1.2h5.7
		c2.5,0,3.8-1.5,3.8-4.6V214.6z"/>
</g>
<g>
	<path opacity="0.22" d="M293.1,306.3c-0.4,0-0.7,0-1-0.1s-0.6-0.4-0.9-1c-0.1-0.1-0.7-1.3-1.7-3.5c-1.1-2.3-36.8-69.7-36.9-69.9
		c-0.2-0.3-0.5-0.4-0.9-0.4s-0.6,0.5-0.6,1.3V296c0,0.2,0,0.5,0.1,0.8c0.1,0.3,0.3,0.5,0.8,0.5h13.2c0.6,0,1,0.1,1.2,0.2
		c0.2,0.1,0.3,0.5,0.3,1.1v6.7c0,0.7-0.2,1.1-0.5,1.1h-1.1h-36.8c-0.8,0-1.3-0.2-1.4-0.5c-0.1-0.3-0.1-0.7-0.1-1.1v-6.3
		c0-0.8,0.4-1.2,1.5-1.2h8.3c2.2,0,3.5-0.5,3.9-1.5s0.5-2.2,0.5-3.6v-77c0-0.4-0.2-0.6-0.6-0.6h-12.8c-0.6,0-0.9-0.4-0.9-1.2v-6.6
		c0-0.9,0.2-1.1,1.4-1.1H248c1.1,0,2.1,0.1,2.9,0.2c0.8,0.2,1.6,0.6,2.3,1.3c0.2,0.2,0.9,1.5,2.1,3.8s39.5,74.9,40.1,76.1
		c0.2,0.4,0.6,0.6,1.2,0.6s0.9-0.4,1-1.2v-70.8c0-0.4-0.1-0.7-0.2-0.8c-0.1-0.2-0.5-0.2-1.2-0.2h-12.7c-0.8,0-1.3-0.1-1.4-0.3
		s-0.2-0.5-0.2-0.9v-6.6c0-0.3,0.1-0.6,0.2-0.8c0.2-0.2,0.6-0.3,1.3-0.3H321c0.6,0,0.9,0.4,0.9,1.1v6.6c0,0.5-0.1,0.8-0.2,1
		c-0.2,0.2-0.6,0.2-1.3,0.2h-10.1c-1.2,0-2,0.3-2.2,0.9c-0.2,0.6-0.3,1.6-0.3,2.9c-0.1,17-0.2,27.6-0.2,40.9v45.8
		c0,0.3-0.1,0.6-0.1,0.8c-0.1,0.2-0.5,0.3-1.2,0.3H293.1L293.1,306.3z"/>
	<path fill="#FFFFFF" d="M292.1,302.3c-0.4,0-0.7,0-1-0.1s-0.6-0.4-0.9-1c-0.1-0.1-0.7-1.3-1.7-3.5c-1.1-2.3-36.8-69.7-36.9-69.9
		c-0.2-0.3-0.5-0.4-0.9-0.4s-0.6,0.5-0.6,1.3V292c0,0.2,0,0.5,0.1,0.8c0.1,0.3,0.3,0.5,0.8,0.5h13.2c0.6,0,1,0.1,1.2,0.2
		c0.2,0.1,0.3,0.5,0.3,1.1v6.7c0,0.7-0.2,1.1-0.5,1.1h-1.1h-36.8c-0.8,0-1.3-0.2-1.4-0.5c-0.1-0.3-0.1-0.7-0.1-1.1v-6.3
		c0-0.8,0.4-1.2,1.5-1.2h8.3c2.2,0,3.5-0.5,3.9-1.5s0.5-2.2,0.5-3.6v-77c0-0.4-0.2-0.6-0.6-0.6h-12.8c-0.6,0-0.9-0.4-0.9-1.2v-6.6
		c0-0.9,0.2-1.1,1.4-1.1H247c1.1,0,2.1,0.1,2.9,0.2c0.8,0.2,1.6,0.6,2.3,1.3c0.2,0.2,0.9,1.5,2.1,3.8c1.2,2.3,39.5,74.9,40.1,76.1
		c0.2,0.4,0.6,0.6,1.2,0.6s0.9-0.4,1-1.2v-70.8c0-0.4-0.1-0.7-0.2-0.8c-0.1-0.2-0.5-0.2-1.2-0.2h-12.7c-0.8,0-1.3-0.1-1.4-0.3
		s-0.2-0.5-0.2-0.9v-6.6c0-0.3,0.1-0.6,0.2-0.8c0.2-0.2,0.6-0.3,1.3-0.3H320c0.6,0,0.9,0.4,0.9,1.1v6.6c0,0.5-0.1,0.8-0.2,1
		c-0.2,0.2-0.6,0.2-1.3,0.2h-10.1c-1.2,0-2,0.3-2.2,0.9c-0.2,0.6-0.3,1.6-0.3,2.9c-0.1,17-0.2,27.6-0.2,40.9v45.8
		c0,0.3-0.1,0.6-0.1,0.8c-0.1,0.2-0.5,0.3-1.2,0.3H292.1L292.1,302.3z"/>
</g>
<g>
	<g opacity="0.22">
		<path d="M393.6,297.2c1,0,1.5,0.3,1.5,0.9v6.9c0,0.8-0.5,1.2-1.5,1.2h-30.2c-1.1,0-1.7-0.4-1.7-1.2v-6.6c0-1,0.5-1.4,1.7-1.2h10
			c0.4,0,0.6-0.2,0.6-0.6l-4.6-21.2c-0.1-1-0.8-1.5-2.1-1.5h-29.4c-1.3,0-2.2,0.5-2.5,1.5l-4.9,21.2c0,0.4,0.2,0.6,0.6,0.6h12.1
			c1.2,0,1.8,0.4,1.8,1.2v6.6c0,0.8-0.6,1.2-1.8,1.2h-30.5c-1,0-1.5-0.4-1.5-1.2v-6.6c0-0.8,0.5-1.2,1.5-1.2h4
			c2.2,0,3.7-0.7,4.4-2.1l25.1-86.6c0.4-1.7,1.2-2.7,2.5-2.8h12.7c1.2,0,2.1,0.9,2.6,2.8l20.5,82.8c1.1,4,3,6,5.7,6L393.6,297.2
			L393.6,297.2z M364.9,264.7c0.4,0,0.7-0.2,1-0.5c0.3-0.4,0.3-0.8,0.2-1.5c-0.2-0.6-3.6-11.8-10.4-42.4c-0.4-1.1-1.2-1.6-2.3-1.5
			c-1.1,0.1-1.9,0.6-2.3,1.5l-11.8,41.5c-0.4,1.2-0.5,2-0.2,2.4c0.2,0.4,0.7,0.5,1.5,0.5H364.9z"/>
	</g>
	<path fill="#FFFFFF" d="M392.6,293.2c1,0,1.5,0.3,1.5,0.9v6.9c0,0.8-0.5,1.2-1.5,1.2h-30.2c-1.1,0-1.7-0.4-1.7-1.2v-6.6
		c0-1,0.5-1.4,1.7-1.2h10c0.4,0,0.6-0.2,0.6-0.6l-4.6-21.2c-0.1-1-0.8-1.5-2.1-1.5h-29.4c-1.3,0-2.2,0.5-2.5,1.5l-4.9,21.2
		c0,0.4,0.2,0.6,0.6,0.6h12.1c1.2,0,1.8,0.4,1.8,1.2v6.6c0,0.8-0.6,1.2-1.8,1.2h-30.5c-1,0-1.5-0.4-1.5-1.2v-6.6
		c0-0.8,0.5-1.2,1.5-1.2h4c2.2,0,3.7-0.7,4.4-2.1l25.1-86.6c0.4-1.7,1.2-2.7,2.5-2.8h12.7c1.2,0,2.1,0.9,2.6,2.8l20.5,82.8
		c1.1,4,3,6,5.7,6L392.6,293.2L392.6,293.2z M363.9,260.7c0.4,0,0.7-0.2,1-0.5c0.3-0.4,0.3-0.8,0.2-1.5c-0.2-0.6-3.6-11.8-10.4-42.4
		c-0.4-1.1-1.2-1.6-2.3-1.5c-1.1,0.1-1.9,0.6-2.3,1.5l-11.8,41.5c-0.4,1.2-0.5,2-0.2,2.4c0.2,0.4,0.7,0.5,1.5,0.5H363.9z"/>
</g>
<g>
	<g opacity="0.22">
		<path d="M472.1,291.4c0,9.6-5.2,14.6-15.6,14.9h-44.9c-10,0-15-5-15-14.9v-41.2v-29.6c0-9.9,5-14.9,15-14.9h44.9
			c10.4,0,15.6,5,15.6,14.9V291.4z M460.1,220.6c-0.1-4-2.7-6-8-6h-36.5c-4.7,0-7.1,2.1-7.1,6.1v70.8c0,4,2.4,6,7.1,6h36.5
			c5.3,0,8-2,8-6V220.6z"/>
	</g>
	<path fill="#FFFFFF" d="M471.1,287.4c0,9.6-5.2,14.6-15.6,14.9h-44.9c-10,0-15-5-15-14.9v-41.2v-29.6c0-9.9,5-14.9,15-14.9h44.9
		c10.4,0,15.6,5,15.6,14.9V287.4z M459.1,216.6c-0.1-4-2.7-6-8-6h-36.5c-4.7,0-7.1,2.1-7.1,6.1v70.8c0,4,2.4,6,7.1,6h36.5
		c5.3,0,8-2,8-6V216.6z"/>
</g>
<path fill="#FFFFFF" d="M483.2,203.6c0,3.1-2.6,5.7-5.8,5.7c-3.1,0-5.7-2.6-5.7-5.8c0-3.2,2.7-5.7,5.8-5.7
	C480.7,197.9,483.3,200.3,483.2,203.6L483.2,203.6z M472.7,203.5c0,2.7,2.1,4.8,4.8,4.8c2.7,0,4.8-2.2,4.8-4.8
	c0-2.7-2.2-4.8-4.8-4.8C474.9,198.8,472.7,200.8,472.7,203.5L472.7,203.5z M475,199.9h2.4c0.8,0,2.5,0,2.5,1.9
	c0,1.3-0.9,1.6-1.4,1.7c1,0.1,1,0.7,1.2,1.6c0.1,0.6,0.2,1.6,0.3,1.9h-1.5c0-0.3-0.2-2.2-0.2-2.3c-0.1-0.4-0.2-0.6-0.7-0.6h-1.2v2.9
	H475L475,199.9z M476.3,203.1h1.1c0.9,0,1.1-0.6,1.1-1c0-1-0.7-1-1-1h-1.1L476.3,203.1L476.3,203.1z"/>
</svg>
